{
  "accessors": [
    {
      "bufferView": 2,
      "componentType": 5126,
      "count": 10482,
      "max": [
        1.3244420289993286,
        36.167423248291016,
        -11.304098129272461
      ],
      "min": [
        -1.3244258165359497,
        -28.599987030029297,
        -15.61298656463623
      ],
      "type": "VEC3"
    },
    {
      "bufferView": 2,
      "byteOffset": 125784,
      "componentType": 5126,
      "count": 10482,
      "max": [
        1,
        1,
        1
      ],
      "min": [
        -1,
        -1,
        -1
      ],
      "type": "VEC3"
    },
    {
      "bufferView": 3,
      "componentType": 5126,
      "count": 10482,
      "max": [
        1,
        1,
        1,
        1
      ],
      "min": [
        -1,
        -1,
        -1,
        -1
      ],
      "type": "VEC4"
    },
    {
      "bufferView": 1,
      "componentType": 5126,
      "count": 10482,
      "max": [
        0.9963281750679016,
        0.9906577467918396
      ],
      "min": [
        0.0075071752071380615,
        0.000251272227615118
      ],
      "type": "VEC2"
    },
    {
      "bufferView": 1,
      "byteOffset": 83856,
      "componentType": 5126,
      "count": 10482,
      "max": [
        0.9963281750679016,
        0.9906577467918396
      ],
      "min": [
        0.0075071752071380615,
        0.000251272227615118
      ],
      "type": "VEC2"
    },
    {
      "bufferView": 0,
      "componentType": 5125,
      "count": 27804,
      "type": "SCALAR"
    },
    {
      "bufferView": 2,
      "byteOffset": 251568,
      "componentType": 5126,
      "count": 41270,
      "max": [
        11.785329818725586,
        80.4275131225586,
        9.405322074890137
      ],
      "min": [
        -11.785329818725586,
        -73.33853149414062,
        -44.040565490722656
      ],
      "type": "VEC3"
    },
    {
      "bufferView": 2,
      "byteOffset": 746808,
      "componentType": 5126,
      "count": 41270,
      "max": [
        1,
        1,
        1
      ],
      "min": [
        -1,
        -1,
        -1
      ],
      "type": "VEC3"
    },
    {
      "bufferView": 3,
      "byteOffset": 167712,
      "componentType": 5126,
      "count": 41270,
      "max": [
        1,
        1,
        1,
        1
      ],
      "min": [
        -1,
        -1,
        -1,
        -1
      ],
      "type": "VEC4"
    },
    {
      "bufferView": 1,
      "byteOffset": 167712,
      "componentType": 5126,
      "count": 41270,
      "max": [
        1.0002100467681885,
        1.0003221035003662
      ],
      "min": [
        0,
        0
      ],
      "type": "VEC2"
    },
    {
      "bufferView": 1,
      "byteOffset": 497872,
      "componentType": 5126,
      "count": 41270,
      "max": [
        1.0002100467681885,
        1.0003221035003662
      ],
      "min": [
        0,
        0
      ],
      "type": "VEC2"
    },
    {
      "bufferView": 0,
      "byteOffset": 111216,
      "componentType": 5125,
      "count": 98688,
      "type": "SCALAR"
    },
    {
      "bufferView": 2,
      "byteOffset": 1242048,
      "componentType": 5126,
      "count": 3077,
      "max": [
        12.397780418395996,
        1.232126235961914,
        -6.344120025634766
      ],
      "min": [
        -12.336832046508789,
        -1.8372039794921875,
        -8.686671257019043
      ],
      "type": "VEC3"
    },
    {
      "bufferView": 2,
      "byteOffset": 1278972,
      "componentType": 5126,
      "count": 3077,
      "max": [
        1,
        1,
        1
      ],
      "min": [
        -1,
        -1,
        -1
      ],
      "type": "VEC3"
    },
    {
      "bufferView": 3,
      "byteOffset": 828032,
      "componentType": 5126,
      "count": 3077,
      "max": [
        1,
        1,
        1,
        1
      ],
      "min": [
        -1,
        -1,
        -1,
        -1
      ],
      "type": "VEC4"
    },
    {
      "bufferView": 1,
      "byteOffset": 828032,
      "componentType": 5126,
      "count": 3077,
      "max": [
        0.9979081749916077,
        0.997130811214447
      ],
      "min": [
        0.000943206250667572,
        0.0017383992671966553
      ],
      "type": "VEC2"
    },
    {
      "bufferView": 1,
      "byteOffset": 852648,
      "componentType": 5126,
      "count": 3077,
      "max": [
        0.9979081749916077,
        0.997130811214447
      ],
      "min": [
        0.000943206250667572,
        0.0017383992671966553
      ],
      "type": "VEC2"
    },
    {
      "bufferView": 0,
      "byteOffset": 505968,
      "componentType": 5125,
      "count": 7485,
      "type": "SCALAR"
    },
    {
      "bufferView": 2,
      "byteOffset": 1315896,
      "componentType": 5126,
      "count": 88,
      "max": [
        1.5863368511199951,
        -11.071889877319336,
        -20.262269973754883
      ],
      "min": [
        -1.5732383728027344,
        -14.231464385986328,
        -21.053255081176758
      ],
      "type": "VEC3"
    },
    {
      "bufferView": 2,
      "byteOffset": 1316952,
      "componentType": 5126,
      "count": 88,
      "max": [
        1,
        1,
        1
      ],
      "min": [
        -1,
        -1,
        -1
      ],
      "type": "VEC3"
    },
    {
      "bufferView": 3,
      "byteOffset": 877264,
      "componentType": 5126,
      "count": 88,
      "max": [
        1,
        1,
        0.04527395963668823,
        1
      ],
      "min": [
        -1,
        -1,
        -0.04527372494339943,
        -1
      ],
      "type": "VEC4"
    },
    {
      "bufferView": 1,
      "byteOffset": 877264,
      "componentType": 5126,
      "count": 88,
      "max": [
        0.35023683309555054,
        0.5522154569625854
      ],
      "min": [
        0.27966588735580444,
        0.48235028982162476
      ],
      "type": "VEC2"
    },
    {
      "bufferView": 1,
      "byteOffset": 877968,
      "componentType": 5126,
      "count": 88,
      "max": [
        0.35023683309555054,
        0.5522154569625854
      ],
      "min": [
        0.27966588735580444,
        0.48235028982162476
      ],
      "type": "VEC2"
    },
    {
      "bufferView": 0,
      "byteOffset": 535908,
      "componentType": 5125,
      "count": 234,
      "type": "SCALAR"
    },
    {
      "bufferView": 2,
      "byteOffset": 1318008,
      "componentType": 5126,
      "count": 1390,
      "max": [
        -6.63486385345459,
        -8.276961326599121,
        -6.426681995391846
      ],
      "min": [
        -9.579733848571777,
        -23.749835968017578,
        -9.402445793151855
      ],
      "type": "VEC3"
    },
    {
      "bufferView": 2,
      "byteOffset": 1334688,
      "componentType": 5126,
      "count": 1390,
      "max": [
        1,
        0.9972994923591614,
        0.9992571473121643
      ],
      "min": [
        -1,
        -0.9995357990264893,
        -0.9998124837875366
      ],
      "type": "VEC3"
    },
    {
      "bufferView": 3,
      "byteOffset": 878672,
      "componentType": 5126,
      "count": 1390,
      "max": [
        1,
        1,
        0.9963991641998291,
        1
      ],
      "min": [
        -1,
        -1,
        -0.9995357990264893,
        -1
      ],
      "type": "VEC4"
    },
    {
      "bufferView": 1,
      "byteOffset": 878672,
      "componentType": 5126,
      "count": 1390,
      "max": [
        0.9998700618743896,
        0.9987574219703674
      ],
      "min": [
        -0.00041994452476501465,
        0
      ],
      "type": "VEC2"
    },
    {
      "bufferView": 1,
      "byteOffset": 889792,
      "componentType": 5126,
      "count": 1390,
      "max": [
        0.9998700618743896,
        0.9987574219703674
      ],
      "min": [
        -0.00041994452476501465,
        0
      ],
      "type": "VEC2"
    },
    {
      "bufferView": 0,
      "byteOffset": 536844,
      "componentType": 5125,
      "count": 3816,
      "type": "SCALAR"
    },
    {
      "bufferView": 2,
      "byteOffset": 1351368,
      "componentType": 5126,
      "count": 3333,
      "max": [
        1.6558715105056763,
        25.589141845703125,
        -15.071324348449707
      ],
      "min": [
        -1.73689603805542,
        -22.281803131103516,
        -25.478256225585938
      ],
      "type": "VEC3"
    },
    {
      "bufferView": 2,
      "byteOffset": 1391364,
      "componentType": 5126,
      "count": 3333,
      "max": [
        1,
        1,
        0.9962573647499084
      ],
      "min": [
        -1,
        -1,
        -1
      ],
      "type": "VEC3"
    },
    {
      "bufferView": 3,
      "byteOffset": 900912,
      "componentType": 5126,
      "count": 3333,
      "max": [
        1,
        1,
        1,
        1
      ],
      "min": [
        -1,
        -1,
        -1,
        -1
      ],
      "type": "VEC4"
    },
    {
      "bufferView": 1,
      "byteOffset": 900912,
      "componentType": 5126,
      "count": 3333,
      "max": [
        0.9889236688613892,
        0.992434024810791
      ],
      "min": [
        0.007155224680900574,
        0.007200837135314941
      ],
      "type": "VEC2"
    },
    {
      "bufferView": 1,
      "byteOffset": 927576,
      "componentType": 5126,
      "count": 3333,
      "max": [
        0.9889236688613892,
        0.992434024810791
      ],
      "min": [
        0.007155224680900574,
        0.007200837135314941
      ],
      "type": "VEC2"
    },
    {
      "bufferView": 0,
      "byteOffset": 552108,
      "componentType": 5125,
      "count": 10116,
      "type": "SCALAR"
    }
  ],
  "asset": {
    "extras": {
      "author": "Yi Tsung Lee (https://sketchfab.com/WTigerTw)",
      "license": "CC-BY-4.0 (http://creativecommons.org/licenses/by/4.0/)",
      "source": "https://sketchfab.com/3d-models/11-low-poly-us-navy-ddg-51-uss-arleigh-burke-17be09c31c6047e4a5969b68c29eba03",
      "title": "1:1 Low poly US NAVY DDG-51 USS Arleigh Burke."
    },
    "generator": "Sketchfab-12.66.0",
    "version": "2.0"
  },
  "bufferViews": [
    {
      "buffer": 0,
      "byteLength": 592572,
      "name": "floatBufferViews",
      "target": 34963,
      "byteOffset": 0
    },
    {
      "buffer": 0,
      "byteLength": 954240,
      "byteOffset": 592572,
      "byteStride": 8,
      "name": "floatBufferViews",
      "target": 34962
    },
    {
      "buffer": 0,
      "byteLength": 1431360,
      "byteOffset": 1546812,
      "byteStride": 12,
      "name": "floatBufferViews",
      "target": 34962
    },
    {
      "buffer": 0,
      "byteLength": 954240,
      "byteOffset": 2978172,
      "byteStride": 16,
      "name": "floatBufferViews",
      "target": 34962
    }
  ],
  "buffers": [
    {
      "uri": "ship_data.bin",
      "byteLength": 3932412
    }
  ],
  "images": [
    {
      "uri": "ship_img0.png"
    },
    {
      "uri": "ship_img1.png"
    },
    {
      "uri": "ship_img2.png"
    },
    {
      "uri": "ship_img3.png"
    },
    {
      "uri": "ship_img4.png"
    },
    {
      "uri": "ship_img5.png"
    },
    {
      "uri": "ship_img6.png"
    },
    {
      "uri": "ship_img7.png"
    },
    {
      "uri": "ship_img8.png"
    },
    {
      "uri": "ship_img9.png"
    },
    {
      "uri": "ship_img10.png"
    },
    {
      "uri": "ship_img11.png"
    },
    {
      "uri": "ship_img12.png"
    },
    {
      "uri": "ship_img13.png"
    }
  ],
  "materials": [
    {
      "alphaMode": "MASK",
      "doubleSided": true,
      "name": "CIWS",
      "normalTexture": {
        "index": 2
      },
      "occlusionTexture": {
        "index": 1
      },
      "pbrMetallicRoughness": {
        "baseColorTexture": {
          "index": 0
        },
        "metallicFactor": 0,
        "metallicRoughnessTexture": {
          "index": 1
        },
        "roughnessFactor": 0.5
      }
    },
    {
      "alphaCutoff": 0.3057187068687716,
      "alphaMode": "MASK",
      "doubleSided": true,
      "name": "DDG112",
      "normalTexture": {
        "index": 5
      },
      "pbrMetallicRoughness": {
        "baseColorTexture": {
          "index": 3
        },
        "metallicFactor": 0.43340234329873717,
        "metallicRoughnessTexture": {
          "index": 4
        },
        "roughnessFactor": 0.6948497893219999
      }
    },
    {
      "doubleSided": true,
      "name": "mk38",
      "normalTexture": {
        "index": 8,
        "texCoord": 1
      },
      "occlusionTexture": {
        "index": 7
      },
      "pbrMetallicRoughness": {
        "baseColorTexture": {
          "index": 6
        },
        "metallicFactor": 0.27531784105211315,
        "metallicRoughnessTexture": {
          "index": 7
        },
        "roughnessFactor": 0.6705290966686731
      }
    },
    {
      "doubleSided": true,
      "name": "RHIB.001",
      "normalTexture": {
        "index": 10
      },
      "pbrMetallicRoughness": {
        "baseColorTexture": {
          "index": 9
        },
        "metallicFactor": 0,
        "roughnessFactor": 0.5
      }
    },
    {
      "doubleSided": true,
      "name": "spg62",
      "normalTexture": {
        "index": 13
      },
      "pbrMetallicRoughness": {
        "baseColorTexture": {
          "index": 11
        },
        "metallicFactor": 0,
        "metallicRoughnessTexture": {
          "index": 12
        },
        "roughnessFactor": 0.5
      }
    }
  ],
  "meshes": [
    {
      "name": "Object_0",
      "primitives": [
        {
          "attributes": {
            "NORMAL": 1,
            "POSITION": 0,
            "TANGENT": 2,
            "TEXCOORD_0": 3,
            "TEXCOORD_1": 4
          },
          "indices": 5,
          "material": 0,
          "mode": 4
        }
      ]
    },
    {
      "name": "Object_1",
      "primitives": [
        {
          "attributes": {
            "NORMAL": 7,
            "POSITION": 6,
            "TANGENT": 8,
            "TEXCOORD_0": 9,
            "TEXCOORD_1": 10
          },
          "indices": 11,
          "material": 1,
          "mode": 4
        }
      ]
    },
    {
      "name": "Object_2",
      "primitives": [
        {
          "attributes": {
            "NORMAL": 13,
            "POSITION": 12,
            "TANGENT": 14,
            "TEXCOORD_0": 15,
            "TEXCOORD_1": 16
          },
          "indices": 17,
          "material": 2,
          "mode": 4
        }
      ]
    },
    {
      "name": "Object_3",
      "primitives": [
        {
          "attributes": {
            "NORMAL": 19,
            "POSITION": 18,
            "TANGENT": 20,
            "TEXCOORD_0": 21,
            "TEXCOORD_1": 22
          },
          "indices": 23,
          "material": 1,
          "mode": 4
        }
      ]
    },
    {
      "name": "Object_4",
      "primitives": [
        {
          "attributes": {
            "NORMAL": 25,
            "POSITION": 24,
            "TANGENT": 26,
            "TEXCOORD_0": 27,
            "TEXCOORD_1": 28
          },
          "indices": 29,
          "material": 3,
          "mode": 4
        }
      ]
    },
    {
      "name": "Object_5",
      "primitives": [
        {
          "attributes": {
            "NORMAL": 31,
            "POSITION": 30,
            "TANGENT": 32,
            "TEXCOORD_0": 33,
            "TEXCOORD_1": 34
          },
          "indices": 35,
          "material": 4,
          "mode": 4
        }
      ]
    }
  ],
  "nodes": [
    {
      "children": [
        1
      ],
      "matrix": [
        1,
        0,
        0,
        0,
        0,
        2.220446049250313e-16,
        -1,
        0,
        0,
        1,
        2.220446049250313e-16,
        0,
        0,
        0,
        0,
        1
      ],
      "name": "Sketchfab_model"
    },
    {
      "children": [
        2
      ],
      "name": "root"
    },
    {
      "children": [
        3,
        5,
        7,
        9,
        11,
        13
      ],
      "matrix": [
        1,
        0,
        0,
        0,
        0,
        2.220446049250313e-16,
        1,
        0,
        0,
        -1,
        2.220446049250313e-16,
        0,
        0,
        0,
        0,
        1
      ],
      "name": "GLTF_SceneRootNode"
    },
    {
      "children": [
        4
      ],
      "matrix": [
        1,
        0,
        0,
        0,
        0,
        0,
        1,
        0,
        0,
        -1,
        0,
        0,
        0,
        0,
        0,
        1
      ],
      "name": "base.003_4"
    },
    {
      "mesh": 0,
      "name": "Object_4"
    },
    {
      "children": [
        6
      ],
      "matrix": [
        1,
        0,
        0,
        0,
        0,
        0,
        1,
        0,
        0,
        -1,
        0,
        0,
        0,
        0,
        0,
        1
      ],
      "name": "DDG51_5"
    },
    {
      "mesh": 1,
      "name": "Object_6"
    },
    {
      "children": [
        8
      ],
      "matrix": [
        1,
        0,
        0,
        0,
        0,
        0,
        1,
        0,
        0,
        -1,
        0,
        0,
        0,
        0,
        0,
        1
      ],
      "name": "MK38 FINAL_7"
    },
    {
      "mesh": 2,
      "name": "Object_8"
    },
    {
      "children": [
        10
      ],
      "matrix": [
        1,
        0,
        0,
        0,
        0,
        0,
        1,
        0,
        0,
        -1,
        0,
        0,
        0,
        0,
        0,
        1
      ],
      "name": "chimney ehaust_8"
    },
    {
      "mesh": 3,
      "name": "Object_10"
    },
    {
      "children": [
        12
      ],
      "matrix": [
        1,
        0,
        0,
        0,
        0,
        0,
        1,
        0,
        0,
        -1,
        0,
        0,
        0,
        0,
        0,
        1
      ],
      "name": "RHIB_final_9"
    },
    {
      "mesh": 4,
      "name": "Object_12"
    },
    {
      "children": [
        14
      ],
      "matrix": [
        1,
        0,
        0,
        0,
        0,
        0,
        1,
        0,
        0,
        -1,
        0,
        0,
        0,
        0,
        0,
        1
      ],
      "name": "SPG62_FINAL_10"
    },
    {
      "mesh": 5,
      "name": "Object_14"
    }
  ],
  "samplers": [
    {
      "magFilter": 9729,
      "minFilter": 9987,
      "wrapS": 10497,
      "wrapT": 10497
    }
  ],
  "scene": 0,
  "scenes": [
    {
      "name": "Sketchfab_Scene",
      "nodes": [
        0
      ]
    }
  ],
  "textures": [
    {
      "sampler": 0,
      "source": 0
    },
    {
      "sampler": 0,
      "source": 1
    },
    {
      "sampler": 0,
      "source": 2
    },
    {
      "sampler": 0,
      "source": 3
    },
    {
      "sampler": 0,
      "source": 4
    },
    {
      "sampler": 0,
      "source": 5
    },
    {
      "sampler": 0,
      "source": 6
    },
    {
      "sampler": 0,
      "source": 7
    },
    {
      "sampler": 0,
      "source": 8
    },
    {
      "sampler": 0,
      "source": 9
    },
    {
      "sampler": 0,
      "source": 10
    },
    {
      "sampler": 0,
      "source": 11
    },
    {
      "sampler": 0,
      "source": 12
    },
    {
      "sampler": 0,
      "source": 13
    }
  ]
}